<svg viewBox="0 0 520 200" xmlns="http://www.w3.org/2000/svg"><rect width="520" height="200" fill="#0d0f13"/>
  <text x="70" y="20" fill="#8b949e" font-size="11" text-anchor="middle" font-family="sans-serif">hero cell (full)</text>
  <g transform="rotate(0 70 105)"><ellipse cx="70" cy="105" rx="46.0" ry="46.0" fill="rgb(16,55,72)" stroke="#26c6ff" stroke-width="2.8"/><g fill="none" stroke="#2ca089" stroke-width="2.3" opacity=".8"><path d="M 75.5 79.7 q 18.4 4.6 7.4 20.7"/><path d="M 85.6 82.0 q 19.3 6.4 6.4 23.0"/></g><g transform="translate(47.0 90.3) rotate(25)"><rect x="-16.6" y="-6.0" width="33.1" height="12.0" rx="6.0" fill="#f0a020"/><path d="M -10.6 0 q 6.6 -6.0 13.2 0 q 6.6 6.0 13.2 0" fill="none" stroke="rgb(248,208,144)" stroke-width="1.9" opacity=".85"/></g><g transform="translate(90.2 128.0) rotate(-35)"><rect x="-13.8" y="-5.5" width="27.6" height="11.0" rx="5.5" fill="#f0a020"/><path d="M -8.3 0 q 6.1 -5.5 12.1 0 q 6.1 5.5 12.1 0" fill="none" stroke="rgb(248,208,144)" stroke-width="1.8" opacity=".85"/></g><circle cx="44.7" cy="120.6" r="5.5" fill="#3fb950"/><circle cx="97.6" cy="99.5" r="4.1" fill="#3fb950"/><circle cx="70" cy="105" r="18.4" fill="#bc8cff"/><circle cx="70" cy="105" r="18.4" fill="none" stroke="rgb(211,180,255)" stroke-width="1.8" opacity=".7"/><circle cx="64.8" cy="101.3" r="6.3" fill="rgb(103,77,140)"/></g>
  <text x="300" y="20" fill="#8b949e" font-size="11" text-anchor="middle" font-family="sans-serif">KO phenotype variants (same cell)</text>
  <g transform="rotate(0 210 100)"><ellipse cx="210" cy="100" rx="30.0" ry="30.0" fill="rgb(16,55,72)" stroke="#26c6ff" stroke-width="1.8"/><g fill="none" stroke="#2ca089" stroke-width="1.5" opacity=".8"><path d="M 213.6 83.5 q 12.0 3.0 4.8 13.5"/><path d="M 220.2 85.0 q 12.6 4.2 4.2 15.0"/></g><g transform="translate(195.0 90.4) rotate(25)"><rect x="-10.8" y="-3.9" width="21.6" height="7.8" rx="3.9" fill="#f0a020"/><path d="M -6.9 0 q 4.3 -3.9 8.6 0 q 4.3 3.9 8.6 0" fill="none" stroke="rgb(248,208,144)" stroke-width="1.2" opacity=".85"/></g><g transform="translate(223.2 115.0) rotate(-35)"><rect x="-9.0" y="-3.6" width="18.0" height="7.2" rx="3.6" fill="#f0a020"/><path d="M -5.4 0 q 4.0 -3.6 7.9 0 q 4.0 3.6 7.9 0" fill="none" stroke="rgb(248,208,144)" stroke-width="1.2" opacity=".85"/></g><circle cx="193.5" cy="110.2" r="3.6" fill="#3fb950"/><circle cx="228.0" cy="96.4" r="2.7" fill="#3fb950"/><circle cx="210" cy="100" r="11.4" fill="#bc8cff"/><circle cx="210" cy="100" r="11.4" fill="none" stroke="rgb(211,180,255)" stroke-width="1.2" opacity=".7"/><circle cx="206.8" cy="97.7" r="3.9" fill="rgb(103,77,140)"/></g><g transform="rotate(20 300 100)"><ellipse cx="300" cy="100" rx="34.9" ry="25.8" fill="rgb(16,55,72)" stroke="#26c6ff" stroke-width="1.8"/><g fill="none" stroke="#2ca089" stroke-width="1.5" opacity=".8"><path d="M 303.6 83.5 q 12.0 3.0 4.8 13.5"/><path d="M 310.2 85.0 q 12.6 4.2 4.2 15.0"/></g><g transform="translate(285.0 90.4) rotate(25)"><rect x="-10.8" y="-3.9" width="21.6" height="7.8" rx="3.9" fill="#f0a020"/><path d="M -6.9 0 q 4.3 -3.9 8.6 0 q 4.3 3.9 8.6 0" fill="none" stroke="rgb(248,208,144)" stroke-width="1.2" opacity=".85"/></g><g transform="translate(313.2 115.0) rotate(-35)"><rect x="-9.0" y="-3.6" width="18.0" height="7.2" rx="3.6" fill="#f0a020"/><path d="M -5.4 0 q 4.0 -3.6 7.9 0 q 4.0 3.6 7.9 0" fill="none" stroke="rgb(248,208,144)" stroke-width="1.2" opacity=".85"/></g><circle cx="283.5" cy="110.2" r="3.6" fill="#3fb950"/><circle cx="318.0" cy="96.4" r="2.7" fill="#3fb950"/><circle cx="300" cy="100" r="12.6" fill="#bc8cff"/><circle cx="300" cy="100" r="12.6" fill="none" stroke="rgb(211,180,255)" stroke-width="1.2" opacity=".7"/><circle cx="296.5" cy="97.5" r="4.3" fill="rgb(103,77,140)"/></g><g transform="rotate(-10 390 100)"><ellipse cx="390" cy="100" rx="26.8" ry="33.5" fill="rgb(16,55,72)" stroke="#26c6ff" stroke-width="1.8"/><g fill="none" stroke="#2ca089" stroke-width="1.5" opacity=".8"><path d="M 393.6 83.5 q 12.0 3.0 4.8 13.5"/><path d="M 400.2 85.0 q 12.6 4.2 4.2 15.0"/></g><g transform="translate(375.0 90.4) rotate(25)"><rect x="-10.8" y="-3.9" width="21.6" height="7.8" rx="3.9" fill="#f0a020"/><path d="M -6.9 0 q 4.3 -3.9 8.6 0 q 4.3 3.9 8.6 0" fill="none" stroke="rgb(248,208,144)" stroke-width="1.2" opacity=".85"/></g><g transform="translate(403.2 115.0) rotate(-35)"><rect x="-9.0" y="-3.6" width="18.0" height="7.2" rx="3.6" fill="#f0a020"/><path d="M -5.4 0 q 4.0 -3.6 7.9 0 q 4.0 3.6 7.9 0" fill="none" stroke="rgb(248,208,144)" stroke-width="1.2" opacity=".85"/></g><circle cx="373.5" cy="110.2" r="3.6" fill="#3fb950"/><circle cx="408.0" cy="96.4" r="2.7" fill="#3fb950"/><circle cx="390" cy="100" r="16.5" fill="#bc8cff"/><circle cx="390" cy="100" r="16.5" fill="none" stroke="rgb(211,180,255)" stroke-width="1.2" opacity=".7"/><circle cx="385.4" cy="96.7" r="5.6" fill="rgb(103,77,140)"/></g><g transform="rotate(35 470 100)"><ellipse cx="470" cy="100" rx="31.5" ry="28.6" fill="rgb(16,55,72)" stroke="#26c6ff" stroke-width="1.8"/><g fill="none" stroke="#2ca089" stroke-width="1.5" opacity=".8"><path d="M 473.6 83.5 q 12.0 3.0 4.8 13.5"/><path d="M 480.2 85.0 q 12.6 4.2 4.2 15.0"/></g><g transform="translate(455.0 90.4) rotate(25)"><rect x="-10.8" y="-3.9" width="21.6" height="7.8" rx="3.9" fill="#f0a020"/><path d="M -6.9 0 q 4.3 -3.9 8.6 0 q 4.3 3.9 8.6 0" fill="none" stroke="rgb(248,208,144)" stroke-width="1.2" opacity=".85"/></g><g transform="translate(483.2 115.0) rotate(-35)"><rect x="-9.0" y="-3.6" width="18.0" height="7.2" rx="3.6" fill="#f0a020"/><path d="M -5.4 0 q 4.0 -3.6 7.9 0 q 4.0 3.6 7.9 0" fill="none" stroke="rgb(248,208,144)" stroke-width="1.2" opacity=".85"/></g><circle cx="453.5" cy="110.2" r="3.6" fill="#3fb950"/><circle cx="488.0" cy="96.4" r="2.7" fill="#3fb950"/><circle cx="470" cy="100" r="9.0" fill="#bc8cff"/><circle cx="470" cy="100" r="9.0" fill="none" stroke="rgb(211,180,255)" stroke-width="1.2" opacity=".7"/><circle cx="467.5" cy="98.2" r="3.1" fill="rgb(103,77,140)"/></g>
  <text x="300" y="185" fill="#8b949e" font-size="11" text-anchor="middle" font-family="sans-serif">well (simple, detail 0)</text>
  <g transform="rotate(0 210 165)"><ellipse cx="210" cy="165" rx="9.0" ry="9.0" fill="rgb(22,52,33)" stroke="#3fb950" stroke-width="1.0"/><circle cx="210" cy="165" r="3.6" fill="#bc8cff"/><circle cx="210" cy="165" r="3.6" fill="none" stroke="rgb(211,180,255)" stroke-width="0.8" opacity=".7"/><circle cx="209.0" cy="164.3" r="1.2" fill="rgb(103,77,140)"/></g><g transform="rotate(0 245 165)"><ellipse cx="245" cy="165" rx="9.0" ry="9.0" fill="rgb(16,55,72)" stroke="#26c6ff" stroke-width="1.0"/><circle cx="245" cy="165" r="3.6" fill="#bc8cff"/><circle cx="245" cy="165" r="3.6" fill="none" stroke="rgb(211,180,255)" stroke-width="0.8" opacity=".7"/><circle cx="244.0" cy="164.3" r="1.2" fill="rgb(103,77,140)"/></g><g transform="rotate(0 280 165)"><ellipse cx="280" cy="165" rx="9.0" ry="9.0" fill="rgb(61,47,23)" stroke="#f0a020" stroke-width="1.0"/><circle cx="280" cy="165" r="3.6" fill="#bc8cff"/><circle cx="280" cy="165" r="3.6" fill="none" stroke="rgb(211,180,255)" stroke-width="0.8" opacity=".7"/><circle cx="279.0" cy="164.3" r="1.2" fill="rgb(103,77,140)"/></g><g transform="rotate(0 315 165)"><ellipse cx="315" cy="165" rx="9.0" ry="9.0" fill="rgb(49,43,72)" stroke="#bc8cff" stroke-width="1.0"/><circle cx="315" cy="165" r="3.6" fill="#bc8cff"/><circle cx="315" cy="165" r="3.6" fill="none" stroke="rgb(211,180,255)" stroke-width="0.8" opacity=".7"/><circle cx="314.0" cy="164.3" r="1.2" fill="rgb(103,77,140)"/></g><g transform="rotate(0 350 165)"><ellipse cx="350" cy="165" rx="9.0" ry="9.0" fill="rgb(54,45,23)" stroke="#d29922" stroke-width="1.0"/><circle cx="350" cy="165" r="3.6" fill="#bc8cff"/><circle cx="350" cy="165" r="3.6" fill="none" stroke="rgb(211,180,255)" stroke-width="0.8" opacity=".7"/><circle cx="349.0" cy="164.3" r="1.2" fill="rgb(103,77,140)"/></g>
</svg>